<svg xmlns="http://www.w3.org/2000/svg" xmlns:xlink="http://www.w3.org/1999/xlink" baseProfile="tiny" height="138.46153846153845" version="1.1" width="139.15384615384613" xml:space="preserve" style=""><rect id="backgroundrect" width="100%" height="100%" x="0" y="0" fill="none" stroke="none" class="" style=""/><g class="currentLayer" style=""><title>Layer 1</title><g id="svg_2" fill="#ffffff" fill-opacity="1" stroke-width=".5" stroke="#ffffff" stroke-opacity="1" class=""><g id="svg_3" fill="#ffffff" fill-opacity="1" stroke-width=".5" stroke="#ffffff" stroke-opacity="1"><path d="M50.662247969128245,136.54215368075353 c-0.8042940342932203,0 -1.6196057950836038,-0.1323780985472614 -2.4238998293768232,-0.39137872613972885 l-0.7492054018073806,-0.25900062759246756 c-26.282786558992683,-9.778712583991094 -43.916657817708995,-35.89748698431571 -43.916657817708995,-65.01491309521094 C3.5724849202350475,32.8555691012364 33.18262488137227,1.919383027691918 69.574175501516,1.919383027691918 c36.40256834664089,0 66.00719944452955,30.936186073544505 66.00719944452955,68.95747820411847 c0,29.40520458599793 -17.859734651908266,55.60455695935134 -44.43449096307588,65.1933357497746 l-0.7216610855644656,0.21871164107808416 c-0.6996256325701335,0.1726670850616452 -1.3276360429086695,0.24748948858835837 -1.9501375899986204,0.24748948858835837 c-4.396072872369772,0 -7.971325120700575,-3.729609037331512 -7.971325120700575,-8.322553499971235 V111.30398141424322 c0,-3.959831817413704 -0.6886079060729606,-6.722505178400002 -2.0548059917217114,-8.207442109930138 c-1.1182992394624856,-1.2144251649335691 -1.4929019403661803,-2.9756294325623256 -0.9750687949993113,-4.581433323635617 c0.5123242821182846,-1.5942927520691836 1.8179248720326124,-2.7626733609863052 3.4044774876247144,-3.038940697084931 c16.09138954911291,-2.7741844999904184 23.919484225350296,-11.25789394601917 23.919484225350296,-25.923085037254786 c0,-6.849127707445202 -1.7518185130496131,-12.426274554936292 -5.233420086154488,-16.576040165917803 c-0.8593826667790542,-1.0360025103698673 -1.2284765044341655,-2.451872607875345 -0.9915953847450634,-3.7929203018541178 c0.9640510685021447,-5.732547224046577 0.8098028975418045,-9.53122309540274 0.3580761111579415,-11.37300533606027 c-1.8785223677670362,0.2647561970945228 -5.4813189323407565,1.3928478194972662 -11.403346924568194,5.755569502054794 c-0.9915953847450634,0.7424684657650712 -2.2971959746593966,1.0072246628595922 -3.5091458893478022,0.7079350487527425 c-4.17020947917784,-1.0014690933575372 -8.951902778948462,-1.525225918044527 -14.1687962753572,-1.5597593350568544 l-0.4021470171466102,0 c-0.06059749573442086,0 -0.11017726497167424,0 -0.17077476070609476,0 c-5.189349180165818,0.02877784751027429 -9.965533616687862,0.5582902416993183 -14.185322865102954,1.5655149045589072 C53.98409250802419,44.53937519040761 52.61238555912687,44.297641271321325 51.604263584636065,43.53790609705011 C45.362721523990764,38.95647277341449 41.76543382266564,37.94924811055492 40.22295211306221,37.74780317798297 C39.765716463429776,39.560807571130255 39.594941702723645,43.39401685949875 40.57551936097157,49.1898753480679 c0.2368811196890992,1.341047693978771 -0.12119499146884173,2.716628804969861 -0.9915953847450634,3.76989802384589 c-3.4816015731048777,4.172787888989725 -5.244437812651657,9.74417916697876 -5.244437812651657,16.587551304921913 c0,14.665191091235613 7.817076949740231,23.14890053726438 23.91397536210171,25.923085037254786 c1.5920614788406846,0.2705117665965764 2.9031709320036017,1.4331368060116465 3.421004077370458,3.0446962665869948 c0.5178331453668669,1.6000483215712347 0.13772158121459238,3.3612525892000074 -0.9971042479936485,4.587188893137674 c-0.9860865214964815,1.0820470663863058 -1.6251146583321896,2.860518042521235 -1.9005578207613674,5.277857233384247 c-0.1983190769490142,1.74969312862466 -1.3606892224001723,3.2346300601547964 -2.969277290986599,3.7871647323520667 c-0.14323044446317648,0.046044556016438636 -0.28646088892635346,0.09784468153493231 -0.43520019663811277,0.13813366804931582 c0.6059749573442089,0.16115594605753486 1.1788967351969117,0.46044556016438615 1.6691855643208555,0.8806021338143887 c1.0081219744908159,0.8460687168020571 1.5975703420892668,2.13531628526233 1.5975703420892668,3.5166529657554855 v11.194582681496573 C58.644590816326,132.80678907391982 55.0638297047466,136.54215368075353 50.662247969128245,136.54215368075353 zM69.574175501516,6.477794073319305 c-33.98417738051267,0 -61.633162025154085,28.88720333081301 -61.633162025154085,64.39906715849105 c0,27.195065897208885 16.471501113265173,51.58716944691709 40.985942569462495,60.70399153817189 l0.6610635898300437,0.23597834958424876 c0.3305317949150223,0.10935582053904193 0.7106433590672957,0.1669115155595906 1.0797371967224063,0.1669115155595906 c1.9942084959872952,0 3.6138142910708977,-1.6921374336041133 3.6138142910708977,-3.76989802384589 V116.71421674617467 c-2.010735085733039,0.448934421160275 -5.024083282708307,0.9669356763452078 -7.8446212659831485,0.9669356763452078 c-2.231089615676389,0 -3.9994347184717407,-0.3280674616171254 -5.2499466759002384,-0.9611801068431546 c-4.120629709940586,-2.0604938817356206 -6.2250154708995495,-4.627477879652056 -8.351436684852839,-10.1470690321226 c-0.9860865214964815,-2.572739567418499 -2.6222189063258345,-4.736833700191096 -4.9965389664653905,-6.613149357860958 l-6.924641103469674,-5.479302165956165 l8.58280894129336,1.410114528003429 c1.7518185130496131,0.2877784751027415 3.2226850004214613,1.0993137748924706 4.2528424279065975,2.3425167873363137 c0.677590179575795,0.8115352997897303 1.4047601283888413,1.8590489491637028 2.17049211994197,2.981385002064386 c2.6222189063258345,3.821698149364389 5.9550811717189465,8.581554127563694 11.441908967308281,8.03477502486849 c2.864608889263513,-0.31080075311096156 5.25545553914882,-0.7885130217815104 7.1009247274243545,-1.4043589585013754 c0.36909383765510895,-3.407297145216444 1.4102689916374271,-6.072125824667809 3.0739456927096915,-7.8908857873171225 c-18.02500054936577,-3.084985253101374 -27.555333969415518,-13.611921872359584 -27.555333969415518,-30.400918109853407 c0,-7.977219329847942 2.126421213953306,-14.561590840198626 6.313157282876885,-19.5804474459904 c-0.6059749573442089,-3.4936306877472583 -1.7242741968066921,-12.052162537302733 0.6996256325701335,-15.770260435630131 l0.5068154188697018,-0.7770018827773979 l0.8814181197733901,-0.1784226545636996 c0.2699342991806024,-0.0518001255184937 0.6665724530786281,-0.10935582053904193 1.2064410514398292,-0.10935582053904193 c2.4844973251112403,0 7.029309505192765,1.156869469913018 14.548907839509475,6.68797176138767 c4.5172678638386135,-1.0878026358883621 9.612966368778503,-1.6518484470897286 15.138356207107929,-1.6806262946000046 l2.4734795986140745,-0.35684530912739926 l0.005508863248583726,0.38562315663767477 c4.941450333979554,0.14964480705342584 9.332014343100736,0.7079350487527425 13.265342702589475,1.6518484470897286 c7.492054018073806,-5.51959115247055 12.091954830641152,-6.676460622383561 14.637049651486816,-6.676460622383561 c0.45723564963244706,0 0.7932763077960522,0.040288986514383895 1.0136308377393997,0.0748224035267131 l0.9309978890106442,0.14388923755137076 l0.5398685983612024,0.8172908692917846 c2.43491755587399,3.7008311898212396 1.3166183164115002,12.282385317384927 0.7216610855644656,15.804793852642458 c4.181227205675005,4.990078758281508 6.302139556379722,11.57445026863219 6.302139556379722,19.55742516798219 c0,16.788996237493826 -9.524824556801166,27.31593285675205 -27.566351695912687,30.423940387861634 c3.2722647696587055,3.5281641047595964 3.2722647696587055,9.404600566357537 3.2722647696587055,11.332716349545883 v16.90986319703698 c0,2.37129463484658 2.1594743934448015,4.241854723014381 4.484214684347109,3.6605422033068487 l0.4241824701409467,-0.1323780985472614 c24.762340302383592,-8.93264386718904 41.437669355846374,-33.39956982042397 41.437669355846374,-60.859391914727375 C131.2128463899187,35.364997404132296 103.55835288202863,6.477794073319305 69.574175501516,6.477794073319305 z" id="svg_4" fill="#ffffff" fill-opacity="1" stroke-width=".5" stroke="#ffffff" stroke-opacity="1"/></g></g><path fill="#ffffff" fill-opacity="1" stroke="#ffffff" stroke-opacity="1" stroke-width="0.5" stroke-dasharray="none" stroke-linejoin="miter" stroke-linecap="butt" stroke-dashoffset="" fill-rule="nonzero" opacity="1" marker-start="" marker-mid="" marker-end="" id="svg_1" d="M-69.0769253396071,12.461537473476852 " style="color: rgb(0, 0, 0);"/></g></svg>