<svg xmlns="http://www.w3.org/2000/svg" xmlns:xlink="http://www.w3.org/1999/xlink" version="1.1" enable-background="new 0 0 129 129" width="129" height="129" style=""><rect id="backgroundrect" width="100%" height="100%" x="0" y="0" fill="none" stroke="none"/>
  
<g class="currentLayer" style=""><title>Layer 1</title><g id="svg_1" class="selected" transform="rotate(149.48687744140625 67.3846206665039,67.3846206665039) " fill="#000000" fill-opacity="1">
    <path d="m24.95864456026689,29.984620010852815 c-1.531450939178467,-0.2 -2.775754827260971,-1.4 -3.1586175620555874,-3 c-0.3828627347946173,-1.5 0.0957156836986543,-3.2 1.2443038880825044,-4.2 c9.954431104660035,-8.8 22.684617036581038,-13.7 35.79766570329666,-13.7 c30.724734467267993,8.88178e-16 55.80224359631538,26.1 55.80224359631538,58.3 s-24.981793445348742,58.3 -55.80224359631538,58.3 c-13.783058452606202,0 -27.087538486719133,-5.4 -37.424832326173785,-15.1 c-1.14858820438385,-1.1 -1.531450939178467,-2.8 -1.14858820438385,-4.3 s1.7228823065757752,-2.6 3.2543332457542418,-2.8 c17.80311716794968,-2.2 31.299028569459917,-18 31.299028569459917,-36.8 c0.0957156836986543,-18.5 -12.538754564523696,-33.9 -29.8632933139801,-36.7 zm37.8076950609684,36.6 c0,19.8 -12.251607513427736,36.9 -29.671861946582794,43 c7.657254695892334,5.1 16.558813279867174,7.9 25.74751891493797,7.9 c26.417528700828555,0 47.85784184932709,-22.5 47.85784184932709,-50 s-21.53602883219719,-50 -47.85784184932709,-50 c-8.518695849180222,0 -16.845960330963138,2.4 -24.12035229206085,6.8 c16.654528963565824,6.4 28.044695323705675,23 28.044695323705675,42.3 z" fill="#000000" id="svg_2" fill-opacity="1"/>
  </g></g></svg>